<svg xmlns="http://www.w3.org/2000/svg" viewBox="0 0 1200 720" fill="none">
  <rect width="1200" height="720" fill="#F1F4F7"/>
  <circle cx="318" cy="354" r="184" fill="#6B7A90"/>
  <circle cx="318" cy="354" r="96" fill="#F1F4F7"/>
  <path d="M318 170C359 170 396 184 426 208L374 272C357 260 338 252 318 252V170Z" fill="#F15A29"/>
  <path d="M502 354C502 395 488 432 464 462L400 410C412 393 420 374 420 354H502Z" fill="#F15A29"/>
  <path d="M318 538C277 538 240 524 210 500L262 436C279 448 298 456 318 456V538Z" fill="#F15A29"/>
  <path d="M134 354C134 313 148 276 172 246L236 298C224 315 216 334 216 354H134Z" fill="#F15A29"/>
  <rect x="618" y="178" width="420" height="84" rx="20" fill="#556579"/>
  <rect x="618" y="306" width="294" height="26" rx="13" fill="#7C8DA0"/>
  <rect x="618" y="354" width="390" height="26" rx="13" fill="#7C8DA0" opacity=".8"/>
  <rect x="618" y="402" width="246" height="26" rx="13" fill="#7C8DA0" opacity=".6"/>
</svg>
