<svg xmlns="http://www.w3.org/2000/svg" viewBox="0 0 1200 720" fill="none">
  <rect width="1200" height="720" fill="#E8F3EE"/>
  <circle cx="300" cy="322" r="168" fill="#2E9E6B"/>
  <!-- protective shield -->
  <path d="M300 214 L372 244 V326 C372 372 340 402 300 422 C260 402 228 372 228 326 V244 Z" fill="#FFFFFF"/>
  <!-- worker figure inside shield -->
  <circle cx="300" cy="292" r="26" fill="#2E9E6B"/>
  <path d="M268 360 C268 330 320 330 332 360 L332 392 L268 392 Z" fill="#2E9E6B"/>
  <!-- checkmark -->
  <path d="M286 320 L298 332 L318 308" stroke="#2E9E6B" stroke-width="10" stroke-linecap="round" stroke-linejoin="round" fill="none"/>
  <!-- title block -->
  <rect x="586" y="184" width="372" height="64" rx="18" fill="#2E9E6B"/>
  <line x1="610" y1="216" x2="934" y2="216" stroke="#FFFFFF" stroke-width="8" stroke-linecap="round"/>
  <!-- body -->
  <rect x="586" y="286" width="392" height="24" rx="12" fill="#5BB58A"/>
  <rect x="586" y="328" width="340" height="24" rx="12" fill="#5BB58A" opacity=".85"/>
  <rect x="586" y="370" width="372" height="24" rx="12" fill="#5BB58A" opacity=".7"/>
  <rect x="586" y="412" width="268" height="24" rx="12" fill="#5BB58A" opacity=".55"/>
  <!-- cta -->
  <rect x="586" y="478" width="196" height="66" rx="20" fill="#1E7A52"/>
</svg>
