<svg xmlns="http://www.w3.org/2000/svg" viewBox="0 0 64 64" fill="none">
  <rect width="64" height="64" rx="18" fill="#EEF1F4"/>
  <circle cx="32" cy="32" r="20" fill="#667785"/>
  <circle cx="32" cy="32" r="10" fill="#EEF1F4"/>
  <path d="M32 12C36.5 12 40.5 13.5 43.8 16.1L38.2 23.1C36.4 21.8 34.3 21 32 21V12Z" fill="#F15A29"/>
  <path d="M52 32C52 36.5 50.5 40.5 47.9 43.8L40.9 38.2C42.2 36.4 43 34.3 43 32H52Z" fill="#F15A29"/>
  <path d="M32 52C27.5 52 23.5 50.5 20.2 47.9L25.8 40.9C27.6 42.2 29.7 43 32 43V52Z" fill="#F15A29"/>
  <path d="M12 32C12 27.5 13.5 23.5 16.1 20.2L23.1 25.8C21.8 27.6 21 29.7 21 32H12Z" fill="#F15A29"/>
</svg>
